<svg width="1774" height="136.804" viewBox="0 0 1774 136.804" xmlns="http://www.w3.org/2000/svg"><g id="svgGroup" stroke-linecap="round" fill-rule="evenodd" font-size="9pt" stroke="#466aa5" stroke-width="0.25mm" fill="#466aa5" style="stroke:#466aa5;stroke-width:0.25mm;fill:#466aa5"><path d="M 1680.4 134.402 L 1674.4 134.402 L 1674.4 2.402 L 1684.8 2.402 L 1713.2 82.402 Q 1716 89.802 1718.7 97.302 Q 1721.4 104.802 1724 112.402 L 1724.8 112.402 Q 1727.6 104.802 1730.1 97.302 Q 1732.6 89.802 1735.2 82.402 L 1763.6 2.402 L 1774 2.402 L 1774 134.402 L 1767.6 134.402 L 1767.6 42.402 Q 1767.6 34.602 1767.9 25.302 Q 1768.2 16.002 1768.4 8.002 L 1767.6 8.002 L 1757.4 37.202 L 1727.6 119.602 L 1720.8 119.602 L 1690.8 37.202 L 1680.4 8.002 L 1679.6 8.002 Q 1680 16.002 1680.2 25.302 Q 1680.4 34.602 1680.4 42.402 L 1680.4 134.402 Z M 1200.4 134.402 L 1194 134.402 L 1194 2.402 L 1200.4 2.402 L 1200.4 78.402 L 1200.8 78.402 L 1268 2.402 L 1276 2.402 L 1233.6 50.802 L 1281.6 134.402 L 1274 134.402 L 1228.8 55.602 L 1200.4 87.602 L 1200.4 134.402 Z M 273.6 134.402 L 200.8 134.402 L 200.8 2.402 L 271.6 2.402 L 271.6 8.002 L 207.2 8.002 L 207.2 61.202 L 261.2 61.202 L 261.2 66.802 L 207.2 66.802 L 207.2 128.802 L 273.6 128.802 L 273.6 134.402 Z M 375.6 134.402 L 302.8 134.402 L 302.8 2.402 L 373.6 2.402 L 373.6 8.002 L 309.2 8.002 L 309.2 61.202 L 363.2 61.202 L 363.2 66.802 L 309.2 66.802 L 309.2 128.802 L 375.6 128.802 L 375.6 134.402 Z M 611.6 134.402 L 538.8 134.402 L 538.8 2.402 L 609.6 2.402 L 609.6 8.002 L 545.2 8.002 L 545.2 61.202 L 599.2 61.202 L 599.2 66.802 L 545.2 66.802 L 545.2 128.802 L 611.6 128.802 L 611.6 134.402 Z M 713.6 134.402 L 640.8 134.402 L 640.8 2.402 L 711.6 2.402 L 711.6 8.002 L 647.2 8.002 L 647.2 61.202 L 701.2 61.202 L 701.2 66.802 L 647.2 66.802 L 647.2 128.802 L 713.6 128.802 L 713.6 134.402 Z M 1162 15.602 L 1158 20.002 Q 1152.6 13.602 1145.2 9.802 A 34.445 34.445 0 0 0 1133.253 6.27 A 42.896 42.896 0 0 0 1128.4 6.002 Q 1113.2 6.002 1102.3 13.602 A 46.085 46.085 0 0 0 1088.766 28.54 A 58.947 58.947 0 0 0 1085.5 35.102 A 70.991 70.991 0 0 0 1080.984 50.792 Q 1079.73 58.048 1079.612 66.287 A 120.157 120.157 0 0 0 1079.6 68.002 A 105.436 105.436 0 0 0 1080.71 83.689 Q 1082.037 92.504 1084.95 99.979 A 64.913 64.913 0 0 0 1085.4 101.102 A 55.802 55.802 0 0 0 1092.321 113.456 A 45.07 45.07 0 0 0 1102 123.002 A 41.19 41.19 0 0 0 1122.576 130.566 A 52.495 52.495 0 0 0 1127.6 130.802 A 45.582 45.582 0 0 0 1137.893 129.685 A 36.742 36.742 0 0 0 1146.4 126.602 A 47.242 47.242 0 0 0 1155.372 120.548 A 63.898 63.898 0 0 0 1162 114.002 L 1166 118.002 A 62.449 62.449 0 0 1 1153.887 128.933 A 56.717 56.717 0 0 1 1149.4 131.702 A 39.32 39.32 0 0 1 1137.848 135.826 Q 1132.965 136.787 1127.378 136.802 A 66.055 66.055 0 0 1 1127.2 136.802 A 52.258 52.258 0 0 1 1110.209 134.113 A 46.685 46.685 0 0 1 1098.7 128.302 Q 1086.4 119.802 1079.6 104.302 A 78.234 78.234 0 0 1 1074.148 85.476 A 107.85 107.85 0 0 1 1072.8 68.002 A 105.906 105.906 0 0 1 1074.121 50.855 Q 1075.819 40.508 1079.7 31.902 A 59.746 59.746 0 0 1 1088.458 17.803 A 50.309 50.309 0 0 1 1099.1 8.302 Q 1111.6 0.002 1128.4 0.002 A 45.804 45.804 0 0 1 1139.022 1.183 A 36.437 36.437 0 0 1 1148.4 4.802 A 58.489 58.489 0 0 1 1155.236 9.232 Q 1159.188 12.227 1162 15.602 Z M 100.4 134.402 L 94 134.402 L 94 2.402 L 130.4 2.402 A 79.797 79.797 0 0 1 142.643 3.282 Q 153.83 5.022 161.4 10.202 Q 172.8 18.002 172.8 36.402 A 42.281 42.281 0 0 1 171.626 46.659 A 28.912 28.912 0 0 1 163.3 61.102 A 36.525 36.525 0 0 1 150.366 68.805 Q 145.247 70.623 139.105 71.391 A 67.708 67.708 0 0 1 137.2 71.602 L 174.8 134.402 L 167.2 134.402 L 130 72.002 L 100.4 72.002 L 100.4 134.402 Z M 1574 134.402 L 1567.6 134.402 L 1567.6 2.402 L 1604 2.402 A 79.797 79.797 0 0 1 1616.243 3.282 Q 1627.43 5.022 1635 10.202 Q 1646.4 18.002 1646.4 36.402 A 42.281 42.281 0 0 1 1645.226 46.659 A 28.912 28.912 0 0 1 1636.9 61.102 A 36.525 36.525 0 0 1 1623.966 68.805 Q 1618.847 70.623 1612.705 71.391 A 67.708 67.708 0 0 1 1610.8 71.602 L 1648.4 134.402 L 1640.8 134.402 L 1603.6 72.002 L 1574 72.002 L 1574 134.402 Z M 6.4 134.402 L 0 134.402 L 0 2.402 L 70.4 2.402 L 70.4 8.002 L 6.4 8.002 L 6.4 63.602 L 60.4 63.602 L 60.4 69.202 L 6.4 69.202 L 6.4 134.402 Z M 451.2 134.402 L 444.8 134.402 L 444.8 2.402 L 515.2 2.402 L 515.2 8.002 L 451.2 8.002 L 451.2 63.602 L 505.2 63.602 L 505.2 69.202 L 451.2 69.202 L 451.2 134.402 Z M 1350.4 134.402 L 1344 134.402 L 1344 2.402 L 1414.4 2.402 L 1414.4 8.002 L 1350.4 8.002 L 1350.4 63.602 L 1404.4 63.602 L 1404.4 69.202 L 1350.4 69.202 L 1350.4 134.402 Z M 966 134.402 L 959.6 134.402 L 1006.8 2.402 L 1012.4 2.402 L 1059.6 134.402 L 1052.8 134.402 L 1036.4 87.202 L 982.6 87.202 L 966 134.402 Z M 899.6 134.402 L 862.8 134.402 L 862.8 2.402 L 897.2 2.402 Q 911.248 2.402 921.117 6.378 A 38.19 38.19 0 0 1 928.5 10.302 A 25.708 25.708 0 0 1 939.579 28.505 A 39.587 39.587 0 0 1 940 34.402 A 34.349 34.349 0 0 1 938.612 44.339 A 29.077 29.077 0 0 1 934.7 52.502 A 26.162 26.162 0 0 1 923.428 61.665 A 34.746 34.746 0 0 1 919.2 63.202 L 919.2 64.002 A 43.385 43.385 0 0 1 929.584 66.847 A 33.068 33.068 0 0 1 940.4 74.102 A 27.03 27.03 0 0 1 947.618 87.931 A 39.59 39.59 0 0 1 948.4 96.002 A 42.932 42.932 0 0 1 946.852 107.864 A 31.07 31.07 0 0 1 935.3 124.602 A 45.457 45.457 0 0 1 920.415 131.787 Q 911.275 134.402 899.6 134.402 Z M 772.4 134.402 L 742.8 134.402 L 742.8 2.402 L 772.4 2.402 Q 789.214 2.402 801.069 7.973 A 45.825 45.825 0 0 1 805.9 10.602 Q 819 18.802 825.3 33.602 A 76.673 76.673 0 0 1 830.394 51.771 A 104.336 104.336 0 0 1 831.6 68.002 Q 831.6 87.602 825.3 102.602 Q 819 117.602 805.9 126.002 Q 792.8 134.402 772.4 134.402 Z M 1463.858 133.152 A 48.563 48.563 0 0 0 1482.8 136.802 A 56.962 56.962 0 0 0 1483.287 136.8 A 46.902 46.902 0 0 0 1510.5 128.302 Q 1522.6 119.802 1529.5 104.302 A 77.208 77.208 0 0 0 1534.983 85.764 A 106.026 106.026 0 0 0 1536.4 68.002 A 125.008 125.008 0 0 0 1536.4 67.708 Q 1536.351 47.094 1529.5 31.902 Q 1522.6 16.602 1510.5 8.302 A 46.56 46.56 0 0 0 1500.933 3.244 A 49.838 49.838 0 0 0 1482.8 0.002 A 57.737 57.737 0 0 0 1481.345 0.02 A 47.491 47.491 0 0 0 1455.1 8.302 A 50.515 50.515 0 0 0 1444.226 18.444 A 62.427 62.427 0 0 0 1436.1 31.902 Q 1432.219 40.508 1430.521 50.855 A 105.906 105.906 0 0 0 1429.2 68.002 A 106.543 106.543 0 0 0 1430.533 85.26 A 77.5 77.5 0 0 0 1436.1 104.302 A 68.492 68.492 0 0 0 1440.393 112.467 A 53.259 53.259 0 0 0 1455.1 128.302 A 46.317 46.317 0 0 0 1463.858 133.152 Z M 1482.8 130.802 A 42.351 42.351 0 0 0 1497.63 128.265 A 38.701 38.701 0 0 0 1507.3 123.002 A 47.169 47.169 0 0 0 1519.333 109.677 A 61.872 61.872 0 0 0 1523.7 101.102 A 73.268 73.268 0 0 0 1528.304 84.738 Q 1529.6 76.908 1529.6 68.002 A 102.923 102.923 0 0 0 1528.471 52.353 Q 1527.019 42.921 1523.7 35.102 Q 1517.8 21.202 1507.3 13.602 A 40.088 40.088 0 0 0 1485.394 6.069 A 49.843 49.843 0 0 0 1482.8 6.002 A 43.506 43.506 0 0 0 1468.346 8.34 A 39.009 39.009 0 0 0 1458.3 13.602 A 46.182 46.182 0 0 0 1446.051 27.006 A 60.505 60.505 0 0 0 1441.9 35.102 A 70.991 70.991 0 0 0 1437.384 50.792 Q 1436.13 58.048 1436.012 66.287 A 120.157 120.157 0 0 0 1436 68.002 Q 1436 87.002 1441.9 101.102 A 58.975 58.975 0 0 0 1448.442 112.936 A 45.967 45.967 0 0 0 1458.3 123.002 A 39.592 39.592 0 0 0 1481.064 130.772 A 49.113 49.113 0 0 0 1482.8 130.802 Z M 749.2 8.002 L 749.2 128.802 L 771.6 128.802 A 72.349 72.349 0 0 0 784.196 127.769 Q 791.352 126.503 797.131 123.684 A 39.326 39.326 0 0 0 802.1 120.802 Q 813.8 112.802 819.3 99.102 A 75.422 75.422 0 0 0 823.994 80.782 A 97.841 97.841 0 0 0 824.8 68.002 Q 824.8 50.602 819.3 37.002 Q 813.8 23.402 802.1 15.702 A 43.675 43.675 0 0 0 788.863 9.988 Q 783.106 8.506 776.33 8.13 A 85.357 85.357 0 0 0 771.6 8.002 L 749.2 8.002 Z M 869.2 66.802 L 869.2 128.802 L 897.2 128.802 A 89.989 89.989 0 0 0 909.903 127.962 Q 916.484 127.022 921.878 125.028 A 40.791 40.791 0 0 0 930 121.002 A 25.488 25.488 0 0 0 941.505 102.856 A 40.163 40.163 0 0 0 942 96.402 A 30.251 30.251 0 0 0 940.617 86.999 A 23.454 23.454 0 0 0 930.3 74.102 A 41.706 41.706 0 0 0 919.694 69.517 Q 910.251 66.802 897.2 66.802 L 869.2 66.802 Z M 100.4 8.002 L 100.4 66.402 L 128 66.402 Q 140.075 66.402 148.446 63.215 A 31.196 31.196 0 0 0 156.2 59.002 A 23.755 23.755 0 0 0 165.113 44.84 A 37.742 37.742 0 0 0 166 36.402 A 38.882 38.882 0 0 0 165.225 28.355 Q 163.244 19.002 156.2 14.402 A 33.867 33.867 0 0 0 147.334 10.409 Q 139.284 8.002 128 8.002 L 100.4 8.002 Z M 1574 8.002 L 1574 66.402 L 1601.6 66.402 Q 1613.675 66.402 1622.046 63.215 A 31.196 31.196 0 0 0 1629.8 59.002 A 23.755 23.755 0 0 0 1638.713 44.84 A 37.742 37.742 0 0 0 1639.6 36.402 A 38.882 38.882 0 0 0 1638.825 28.355 Q 1636.844 19.002 1629.8 14.402 A 33.867 33.867 0 0 0 1620.934 10.409 Q 1612.884 8.002 1601.6 8.002 L 1574 8.002 Z M 869.2 8.002 L 869.2 61.202 L 893.2 61.202 A 104.266 104.266 0 0 0 903.814 60.701 Q 914.532 59.6 921.092 56.08 A 23.884 23.884 0 0 0 924.2 54.102 A 22.539 22.539 0 0 0 933.453 37.772 A 29.372 29.372 0 0 0 933.6 34.802 A 34.088 34.088 0 0 0 932.764 26.981 Q 930.709 18.268 923.6 14.002 Q 913.801 8.123 895.168 8.004 A 121.111 121.111 0 0 0 894.4 8.002 L 869.2 8.002 Z M 994 55.202 L 984.6 81.602 L 1034.4 81.602 L 1025.2 55.202 Q 1021 43.202 1017.3 32.302 A 577.315 577.315 0 0 1 1012.033 15.962 A 669.849 669.849 0 0 1 1010 9.202 L 1009.2 9.202 Q 1005.6 21.402 1001.9 32.302 Q 998.2 43.202 994 55.202 Z"/></g></svg>