<svg width="1794.6" height="136.604" viewBox="0 0 1794.6 136.604" xmlns="http://www.w3.org/2000/svg"><g id="svgGroup" stroke-linecap="round" fill-rule="evenodd" font-size="9pt" stroke="#1f73b5" stroke-width="0.25mm" fill="#1f73b5" style="stroke:#1f73b5;stroke-width:0.25mm;fill:#1f73b5"><path d="M 1700.8 134.202 L 1692.2 134.202 L 1692.2 2.402 L 1705.2 2.402 L 1732.8 79.802 Q 1735.4 87.002 1738 94.302 Q 1740.6 101.602 1743.2 109.002 L 1744 109.002 Q 1746.6 101.602 1749 94.302 Q 1751.4 87.002 1754 79.802 L 1781.4 2.402 L 1794.6 2.402 L 1794.6 134.202 L 1785.6 134.202 L 1785.6 47.602 Q 1785.6 39.402 1786 29.802 Q 1786.4 20.202 1786.8 12.002 L 1786 12.002 L 1775.8 41.402 L 1747.4 119.802 L 1739.4 119.802 L 1710.8 41.402 L 1700.4 12.002 L 1699.6 12.002 Q 1700 20.202 1700.4 29.802 Q 1700.8 39.402 1700.8 47.602 L 1700.8 134.202 Z M 1215.2 134.202 L 1206 134.202 L 1206 2.402 L 1215.2 2.402 L 1215.2 75.602 L 1215.6 75.602 L 1279.4 2.402 L 1290.4 2.402 L 1248.4 51.202 L 1296.2 134.202 L 1285.6 134.202 L 1242 58.202 L 1215.2 88.802 L 1215.2 134.202 Z M 278.4 134.202 L 204.2 134.202 L 204.2 2.402 L 276.4 2.402 L 276.4 10.402 L 213.4 10.402 L 213.4 60.202 L 266.2 60.202 L 266.2 68.202 L 213.4 68.202 L 213.4 126.202 L 278.4 126.202 L 278.4 134.202 Z M 381.4 134.202 L 307.2 134.202 L 307.2 2.402 L 379.4 2.402 L 379.4 10.402 L 316.4 10.402 L 316.4 60.202 L 369.2 60.202 L 369.2 68.202 L 316.4 68.202 L 316.4 126.202 L 381.4 126.202 L 381.4 134.202 Z M 619.8 134.202 L 545.6 134.202 L 545.6 2.402 L 617.8 2.402 L 617.8 10.402 L 554.8 10.402 L 554.8 60.202 L 607.6 60.202 L 607.6 68.202 L 554.8 68.202 L 554.8 126.202 L 619.8 126.202 L 619.8 134.202 Z M 722.8 134.202 L 648.6 134.202 L 648.6 2.402 L 720.8 2.402 L 720.8 10.402 L 657.8 10.402 L 657.8 60.202 L 710.6 60.202 L 710.6 68.202 L 657.8 68.202 L 657.8 126.202 L 722.8 126.202 L 722.8 134.202 Z M 1175.4 15.802 L 1170 22.002 Q 1164.6 15.802 1157.4 12.102 A 33.639 33.639 0 0 0 1145.051 8.579 A 41.121 41.121 0 0 0 1141.2 8.402 A 47.638 47.638 0 0 0 1127.97 10.17 A 39.383 39.383 0 0 0 1116.3 15.702 Q 1105.8 23.002 1100.1 36.302 Q 1094.4 49.602 1094.4 68.002 A 100.01 100.01 0 0 0 1095.55 83.551 Q 1096.938 92.364 1100 99.802 A 54.292 54.292 0 0 0 1106.283 111.189 A 42.764 42.764 0 0 0 1115.9 120.802 A 39.339 39.339 0 0 0 1135.002 127.919 A 50.463 50.463 0 0 0 1140.4 128.202 A 43.468 43.468 0 0 0 1150.617 127.045 A 35.876 35.876 0 0 0 1158.6 124.102 A 47.75 47.75 0 0 0 1167.583 118.058 A 63.179 63.179 0 0 0 1173.8 112.002 L 1179.2 117.802 A 63.735 63.735 0 0 1 1166.226 129.103 A 58.453 58.453 0 0 1 1162.2 131.502 A 41.354 41.354 0 0 1 1149.302 135.854 A 55.542 55.542 0 0 1 1140 136.602 A 53.068 53.068 0 0 1 1122.067 133.64 A 48.282 48.282 0 0 1 1111.3 128.202 A 53.184 53.184 0 0 1 1095.19 110.913 A 67.038 67.038 0 0 1 1091.8 104.402 A 75.088 75.088 0 0 1 1086.338 86.459 Q 1084.896 78.384 1084.806 69.227 A 124.529 124.529 0 0 1 1084.8 68.002 A 104.254 104.254 0 0 1 1086.135 50.881 Q 1087.879 40.411 1091.9 31.802 Q 1099 16.602 1111.6 8.302 A 50.405 50.405 0 0 1 1134.723 0.306 A 63.498 63.498 0 0 1 1141 0.002 Q 1152.6 0.002 1161.4 4.802 A 57.666 57.666 0 0 1 1168.636 9.439 Q 1172.556 12.411 1175.4 15.802 Z M 104.6 134.202 L 95.4 134.202 L 95.4 2.402 L 133.2 2.402 A 79.321 79.321 0 0 1 145.753 3.335 Q 156.856 5.117 164.6 10.302 A 25.011 25.011 0 0 1 174.671 24.282 Q 176.022 28.693 176.317 34.097 A 56.868 56.868 0 0 1 176.4 37.202 A 44.213 44.213 0 0 1 175.275 47.471 A 29.624 29.624 0 0 1 167.3 62.002 A 36.799 36.799 0 0 1 153.437 70.499 A 52.654 52.654 0 0 1 142.6 73.002 L 179 134.202 L 168.4 134.202 L 132.6 73.602 L 104.6 73.602 L 104.6 134.202 Z M 1592.6 134.202 L 1583.4 134.202 L 1583.4 2.402 L 1621.2 2.402 A 79.321 79.321 0 0 1 1633.753 3.335 Q 1644.856 5.117 1652.6 10.302 A 25.011 25.011 0 0 1 1662.671 24.282 Q 1664.022 28.693 1664.317 34.097 A 56.868 56.868 0 0 1 1664.4 37.202 A 44.213 44.213 0 0 1 1663.275 47.471 A 29.624 29.624 0 0 1 1655.3 62.002 A 36.799 36.799 0 0 1 1641.437 70.499 A 52.654 52.654 0 0 1 1630.6 73.002 L 1667 134.202 L 1656.4 134.202 L 1620.6 73.602 L 1592.6 73.602 L 1592.6 134.202 Z M 9.2 134.202 L 0 134.202 L 0 2.402 L 71.8 2.402 L 71.8 10.402 L 9.2 10.402 L 9.2 62.802 L 62.2 62.802 L 62.2 70.802 L 9.2 70.802 L 9.2 134.202 Z M 459.4 134.202 L 450.2 134.202 L 450.2 2.402 L 522 2.402 L 522 10.402 L 459.4 10.402 L 459.4 62.802 L 512.4 62.802 L 512.4 70.802 L 459.4 70.802 L 459.4 134.202 Z M 1366.8 134.202 L 1357.6 134.202 L 1357.6 2.402 L 1429.4 2.402 L 1429.4 10.402 L 1366.8 10.402 L 1366.8 62.802 L 1419.8 62.802 L 1419.8 70.802 L 1366.8 70.802 L 1366.8 134.202 Z M 979.4 134.202 L 970.2 134.202 L 1016.6 2.402 L 1025.8 2.402 L 1072.2 134.202 L 1062.6 134.202 L 1047.2 89.002 L 995 89.002 L 979.4 134.202 Z M 910.6 134.202 L 872.4 134.202 L 872.4 2.402 L 908 2.402 A 84.298 84.298 0 0 1 920.647 3.291 Q 927.216 4.29 932.591 6.41 A 40.013 40.013 0 0 1 939.8 10.102 A 25.131 25.131 0 0 1 951.075 27.795 A 39.635 39.635 0 0 1 951.6 34.402 A 35.003 35.003 0 0 1 950.259 44.268 A 29.329 29.329 0 0 1 946.4 52.502 A 25.906 25.906 0 0 1 934.817 61.896 A 34.062 34.062 0 0 1 931.2 63.202 L 931.2 64.002 A 40.97 40.97 0 0 1 941.608 66.993 A 32.21 32.21 0 0 1 951.8 74.102 Q 959.6 82.202 959.6 95.802 A 42.996 42.996 0 0 1 958.046 107.704 A 30.758 30.758 0 0 1 946.3 124.502 A 46.971 46.971 0 0 1 931.003 131.7 Q 924.514 133.498 916.813 134.004 A 94.86 94.86 0 0 1 910.6 134.202 Z M 782.4 134.202 L 751.6 134.202 L 751.6 2.402 L 782.2 2.402 A 84.54 84.54 0 0 1 796.488 3.541 Q 807.55 5.439 815.8 10.502 Q 829 18.602 835.5 33.202 A 72.262 72.262 0 0 1 840.572 50.238 Q 842 58.427 842 67.802 A 103.997 103.997 0 0 1 840.665 84.88 A 75.361 75.361 0 0 1 835.5 102.702 Q 829 117.602 815.8 125.902 Q 803.779 133.46 785.954 134.135 A 93.878 93.878 0 0 1 782.4 134.202 Z M 1480.456 133.281 A 49.814 49.814 0 0 0 1498.8 136.602 A 58.54 58.54 0 0 0 1501.399 136.545 A 47.516 47.516 0 0 0 1527 128.102 Q 1539.2 119.602 1546.2 104.202 Q 1550.137 95.539 1551.86 85.105 A 106.254 106.254 0 0 0 1553.2 67.802 A 122.154 122.154 0 0 0 1553.194 66.588 Q 1553.104 57.519 1551.662 49.532 A 73.38 73.38 0 0 0 1546.2 31.802 A 67.441 67.441 0 0 0 1542.367 24.62 A 53.091 53.091 0 0 0 1527 8.302 A 46.66 46.66 0 0 0 1515.598 2.628 A 52.302 52.302 0 0 0 1498.8 0.002 A 58.755 58.755 0 0 0 1496.596 0.043 A 48.106 48.106 0 0 0 1470.8 8.302 A 51.214 51.214 0 0 0 1460.126 18.052 A 62.265 62.265 0 0 0 1451.6 31.802 Q 1447.663 40.352 1445.94 50.674 A 104.075 104.075 0 0 0 1444.6 67.802 A 124.529 124.529 0 0 0 1444.606 69.027 Q 1444.696 78.184 1446.138 86.259 A 75.088 75.088 0 0 0 1451.6 104.202 A 68.756 68.756 0 0 0 1455.686 111.896 A 54.062 54.062 0 0 0 1470.8 128.102 A 46.605 46.605 0 0 0 1480.456 133.281 Z M 1498.8 128.202 A 40.304 40.304 0 0 0 1512.799 125.829 A 36.667 36.667 0 0 0 1522.2 120.702 A 44.855 44.855 0 0 0 1533.43 108.231 A 59.326 59.326 0 0 0 1537.8 99.602 A 71.604 71.604 0 0 0 1542.17 83.854 Q 1543.4 76.333 1543.4 67.802 A 99.426 99.426 0 0 0 1542.328 52.817 Q 1541.123 44.913 1538.56 38.196 A 60.018 60.018 0 0 0 1537.8 36.302 A 54.97 54.97 0 0 0 1531.583 25.151 A 42.999 42.999 0 0 0 1522.2 15.702 A 38.025 38.025 0 0 0 1501.385 8.471 A 47.448 47.448 0 0 0 1498.8 8.402 A 41.449 41.449 0 0 0 1485.161 10.585 A 36.973 36.973 0 0 0 1475.4 15.702 A 44.192 44.192 0 0 0 1463.784 28.486 A 57.905 57.905 0 0 0 1459.8 36.302 A 68.339 68.339 0 0 0 1455.514 51.32 Q 1454.323 58.267 1454.212 66.159 A 116.153 116.153 0 0 0 1454.2 67.802 A 100.01 100.01 0 0 0 1455.35 83.351 Q 1456.738 92.164 1459.8 99.602 A 56.864 56.864 0 0 0 1465.957 110.927 A 43.818 43.818 0 0 0 1475.4 120.702 A 37.518 37.518 0 0 0 1496.932 128.165 A 46.644 46.644 0 0 0 1498.8 128.202 Z M 760.8 10.202 L 760.8 126.402 L 781.2 126.402 A 70.636 70.636 0 0 0 793.515 125.391 Q 803.349 123.648 810.5 118.902 Q 821.8 111.402 827.1 98.202 A 71.656 71.656 0 0 0 831.386 82.086 A 96.252 96.252 0 0 0 832.4 67.802 Q 832.4 50.62 827.111 37.729 A 60.198 60.198 0 0 0 827.1 37.702 Q 821.8 24.802 810.5 17.502 A 42.642 42.642 0 0 0 797.753 12.084 Q 792.194 10.672 785.662 10.319 A 82.712 82.712 0 0 0 781.2 10.202 L 760.8 10.202 Z M 881.6 68.002 L 881.6 126.602 L 908.2 126.602 Q 921.936 126.602 931.644 122.967 A 38.818 38.818 0 0 0 939.2 119.202 A 24.208 24.208 0 0 0 950.199 101.631 A 37.886 37.886 0 0 0 950.6 96.002 A 28.568 28.568 0 0 0 949.288 87.102 A 22.182 22.182 0 0 0 939.5 74.902 A 39.701 39.701 0 0 0 929.44 70.564 Q 920.509 68.002 908.2 68.002 L 881.6 68.002 Z M 104.6 10.202 L 104.6 66.002 L 130.8 66.002 Q 148.2 66.002 157.6 58.902 A 22.774 22.774 0 0 0 166.127 45.402 A 36.192 36.192 0 0 0 167 37.202 A 36.531 36.531 0 0 0 166.256 29.565 Q 164.356 20.686 157.6 16.302 A 32.772 32.772 0 0 0 149.036 12.467 Q 141.403 10.202 130.8 10.202 L 104.6 10.202 Z M 1592.6 10.202 L 1592.6 66.002 L 1618.8 66.002 Q 1636.2 66.002 1645.6 58.902 A 22.774 22.774 0 0 0 1654.127 45.402 A 36.192 36.192 0 0 0 1655 37.202 A 36.531 36.531 0 0 0 1654.256 29.565 Q 1652.356 20.686 1645.6 16.302 A 32.772 32.772 0 0 0 1637.036 12.467 Q 1629.403 10.202 1618.8 10.202 L 1592.6 10.202 Z M 881.6 10.002 L 881.6 60.402 L 904.4 60.402 A 96.867 96.867 0 0 0 914.334 59.929 Q 926.964 58.622 933.5 53.702 A 21.304 21.304 0 0 0 942.261 38.225 A 28.021 28.021 0 0 0 942.4 35.402 Q 942.4 21.402 933 15.702 A 32.855 32.855 0 0 0 925.107 12.341 Q 917.059 10.002 905.4 10.002 L 881.6 10.002 Z M 1006.2 56.602 L 997.8 81.202 L 1044.6 81.202 L 1036.2 56.602 Q 1032.2 44.802 1028.6 34.002 A 458.718 458.718 0 0 1 1023.745 18.49 A 537.69 537.69 0 0 1 1021.6 11.002 L 1020.8 11.002 A 506.924 506.924 0 0 1 1016.03 27.115 A 431.573 431.573 0 0 1 1013.8 34.002 Q 1010.2 44.802 1006.2 56.602 Z"/></g></svg>