<svg width="887" height="68.402" viewBox="0 0 887 68.402" xmlns="http://www.w3.org/2000/svg"><g id="svgGroup" stroke-linecap="round" fill-rule="evenodd" font-size="9pt" stroke="#0c2c4d" stroke-width="0.25mm" fill="#0c2c4d" style="stroke:#0c2c4d;stroke-width:0.25mm;fill:#0c2c4d"><path d="M 840.2 67.201 L 837.2 67.201 L 837.2 1.201 L 842.4 1.201 L 856.6 41.201 Q 858 44.901 859.35 48.651 Q 860.7 52.401 862 56.201 L 862.4 56.201 Q 863.8 52.401 865.05 48.651 Q 866.3 44.901 867.6 41.201 L 881.8 1.201 L 887 1.201 L 887 67.201 L 883.8 67.201 L 883.8 21.201 Q 883.8 17.301 883.95 12.651 Q 884.1 8.001 884.2 4.001 L 883.8 4.001 L 878.7 18.601 L 863.8 59.801 L 860.4 59.801 L 845.4 18.601 L 840.2 4.001 L 839.8 4.001 Q 840 8.001 840.1 12.651 Q 840.2 17.301 840.2 21.201 L 840.2 67.201 Z M 600.2 67.201 L 597 67.201 L 597 1.201 L 600.2 1.201 L 600.2 39.201 L 600.4 39.201 L 634 1.201 L 638 1.201 L 616.8 25.401 L 640.8 67.201 L 637 67.201 L 614.4 27.801 L 600.2 43.801 L 600.2 67.201 Z M 136.8 67.201 L 100.4 67.201 L 100.4 1.201 L 135.8 1.201 L 135.8 4.001 L 103.6 4.001 L 103.6 30.601 L 130.6 30.601 L 130.6 33.401 L 103.6 33.401 L 103.6 64.401 L 136.8 64.401 L 136.8 67.201 Z M 187.8 67.201 L 151.4 67.201 L 151.4 1.201 L 186.8 1.201 L 186.8 4.001 L 154.6 4.001 L 154.6 30.601 L 181.6 30.601 L 181.6 33.401 L 154.6 33.401 L 154.6 64.401 L 187.8 64.401 L 187.8 67.201 Z M 305.8 67.201 L 269.4 67.201 L 269.4 1.201 L 304.8 1.201 L 304.8 4.001 L 272.6 4.001 L 272.6 30.601 L 299.6 30.601 L 299.6 33.401 L 272.6 33.401 L 272.6 64.401 L 305.8 64.401 L 305.8 67.201 Z M 356.8 67.201 L 320.4 67.201 L 320.4 1.201 L 355.8 1.201 L 355.8 4.001 L 323.6 4.001 L 323.6 30.601 L 350.6 30.601 L 350.6 33.401 L 323.6 33.401 L 323.6 64.401 L 356.8 64.401 L 356.8 67.201 Z M 581 7.801 L 579 10.001 Q 576.3 6.801 572.6 4.901 Q 568.9 3.001 564.2 3.001 A 25.425 25.425 0 0 0 557.547 3.836 A 20.393 20.393 0 0 0 551.15 6.801 A 23.043 23.043 0 0 0 544.383 14.27 A 29.473 29.473 0 0 0 542.75 17.551 A 35.496 35.496 0 0 0 540.492 25.396 Q 539.8 29.399 539.8 34.001 A 52.718 52.718 0 0 0 540.355 41.845 Q 541.069 46.585 542.7 50.551 A 27.901 27.901 0 0 0 546.16 56.728 A 22.535 22.535 0 0 0 551 61.501 Q 556.4 65.401 563.8 65.401 A 22.791 22.791 0 0 0 568.947 64.843 A 18.371 18.371 0 0 0 573.2 63.301 A 23.621 23.621 0 0 0 577.686 60.274 A 31.949 31.949 0 0 0 581 57.001 L 583 59.001 A 31.224 31.224 0 0 1 576.944 64.467 A 28.359 28.359 0 0 1 574.7 65.851 A 19.66 19.66 0 0 1 568.924 67.913 Q 566.483 68.393 563.689 68.401 A 33.027 33.027 0 0 1 563.6 68.401 A 26.129 26.129 0 0 1 555.104 67.056 A 23.342 23.342 0 0 1 549.35 64.151 A 26.313 26.313 0 0 1 541.672 55.807 A 33.411 33.411 0 0 1 539.8 52.151 A 39.117 39.117 0 0 1 537.074 42.738 A 53.925 53.925 0 0 1 536.4 34.001 A 52.953 52.953 0 0 1 537.06 25.427 Q 537.909 20.254 539.85 15.951 A 29.873 29.873 0 0 1 544.229 8.901 A 25.155 25.155 0 0 1 549.55 4.151 A 24.871 24.871 0 0 1 560.845 0.176 A 31.542 31.542 0 0 1 564.2 0.001 A 22.902 22.902 0 0 1 569.511 0.592 A 18.219 18.219 0 0 1 574.2 2.401 Q 578.5 4.801 581 7.801 Z M 50.2 67.201 L 47 67.201 L 47 1.201 L 65.2 1.201 Q 72.153 1.201 77.042 3.164 A 18.967 18.967 0 0 1 80.7 5.101 Q 85.961 8.701 86.366 16.816 A 27.792 27.792 0 0 1 86.4 18.201 A 21.141 21.141 0 0 1 85.813 23.329 A 14.456 14.456 0 0 1 81.65 30.551 A 18.263 18.263 0 0 1 75.183 34.402 Q 72.231 35.451 68.6 35.801 L 87.4 67.201 L 83.6 67.201 L 65 36.001 L 50.2 36.001 L 50.2 67.201 Z M 787 67.201 L 783.8 67.201 L 783.8 1.201 L 802 1.201 Q 808.953 1.201 813.842 3.164 A 18.967 18.967 0 0 1 817.5 5.101 Q 822.761 8.701 823.166 16.816 A 27.792 27.792 0 0 1 823.2 18.201 A 21.141 21.141 0 0 1 822.613 23.329 A 14.456 14.456 0 0 1 818.45 30.551 A 18.263 18.263 0 0 1 811.983 34.402 Q 809.031 35.451 805.4 35.801 L 824.2 67.201 L 820.4 67.201 L 801.8 36.001 L 787 36.001 L 787 67.201 Z M 3.2 67.201 L 0 67.201 L 0 1.201 L 35.2 1.201 L 35.2 4.001 L 3.2 4.001 L 3.2 31.801 L 30.2 31.801 L 30.2 34.601 L 3.2 34.601 L 3.2 67.201 Z M 225.6 67.201 L 222.4 67.201 L 222.4 1.201 L 257.6 1.201 L 257.6 4.001 L 225.6 4.001 L 225.6 31.801 L 252.6 31.801 L 252.6 34.601 L 225.6 34.601 L 225.6 67.201 Z M 675.2 67.201 L 672 67.201 L 672 1.201 L 707.2 1.201 L 707.2 4.001 L 675.2 4.001 L 675.2 31.801 L 702.2 31.801 L 702.2 34.601 L 675.2 34.601 L 675.2 67.201 Z M 483 67.201 L 479.8 67.201 L 503.4 1.201 L 506.2 1.201 L 529.8 67.201 L 526.4 67.201 L 518.2 43.601 L 491.3 43.601 L 483 67.201 Z M 449.8 67.201 L 431.4 67.201 L 431.4 1.201 L 448.6 1.201 A 40.185 40.185 0 0 1 454.783 1.647 Q 460.432 2.528 464.25 5.151 A 12.854 12.854 0 0 1 469.789 14.252 A 19.793 19.793 0 0 1 470 17.201 A 17.174 17.174 0 0 1 469.306 22.169 A 14.538 14.538 0 0 1 467.35 26.251 A 13.081 13.081 0 0 1 461.714 30.832 A 17.373 17.373 0 0 1 459.6 31.601 L 459.6 32.001 A 21.693 21.693 0 0 1 464.792 33.423 A 16.534 16.534 0 0 1 470.2 37.051 A 13.515 13.515 0 0 1 473.809 43.965 A 19.795 19.795 0 0 1 474.2 48.001 A 21.466 21.466 0 0 1 473.426 53.932 A 15.535 15.535 0 0 1 467.65 62.301 Q 462.157 66.41 453.325 67.073 A 47.087 47.087 0 0 1 449.8 67.201 Z M 386.2 67.201 L 371.4 67.201 L 371.4 1.201 L 386.2 1.201 A 41.643 41.643 0 0 1 393.337 1.778 Q 398.856 2.738 402.95 5.301 Q 409.5 9.401 412.65 16.801 A 38.337 38.337 0 0 1 415.197 25.885 A 52.168 52.168 0 0 1 415.8 34.001 A 52.007 52.007 0 0 1 415.108 42.683 A 38.985 38.985 0 0 1 412.65 51.301 Q 409.5 58.801 402.95 63.001 A 25.092 25.092 0 0 1 395.226 66.215 Q 391.939 67.008 388.097 67.163 A 47.098 47.098 0 0 1 386.2 67.201 Z M 731.929 66.576 A 24.281 24.281 0 0 0 741.4 68.401 A 28.481 28.481 0 0 0 741.643 68.4 A 23.451 23.451 0 0 0 755.25 64.151 A 25.756 25.756 0 0 0 760.687 58.979 A 31.974 31.974 0 0 0 764.75 52.151 A 38.604 38.604 0 0 0 767.492 42.882 A 53.013 53.013 0 0 0 768.2 34.001 A 62.432 62.432 0 0 0 768.2 33.854 Q 768.176 23.547 764.75 15.951 A 33.421 33.421 0 0 0 762.604 11.925 A 26.079 26.079 0 0 0 755.25 4.151 A 23.28 23.28 0 0 0 750.466 1.622 A 24.919 24.919 0 0 0 741.4 0.001 A 28.868 28.868 0 0 0 740.673 0.01 A 23.745 23.745 0 0 0 727.55 4.151 Q 721.5 8.301 718.05 15.951 Q 716.109 20.254 715.26 25.427 A 52.953 52.953 0 0 0 714.6 34.001 A 53.272 53.272 0 0 0 715.266 42.63 A 38.75 38.75 0 0 0 718.05 52.151 A 34.246 34.246 0 0 0 720.196 56.234 A 26.629 26.629 0 0 0 727.55 64.151 A 23.159 23.159 0 0 0 731.929 66.576 Z M 741.4 65.401 A 21.175 21.175 0 0 0 748.815 64.132 A 19.35 19.35 0 0 0 753.65 61.501 A 23.584 23.584 0 0 0 759.666 54.838 A 30.936 30.936 0 0 0 761.85 50.551 Q 764.8 43.501 764.8 34.001 A 51.461 51.461 0 0 0 764.235 26.177 Q 763.577 21.903 762.153 18.291 A 31.111 31.111 0 0 0 761.85 17.551 A 28.69 28.69 0 0 0 758.579 11.728 A 22.458 22.458 0 0 0 753.65 6.801 A 20.044 20.044 0 0 0 742.697 3.034 A 24.922 24.922 0 0 0 741.4 3.001 A 21.753 21.753 0 0 0 734.173 4.17 A 19.505 19.505 0 0 0 729.15 6.801 A 23.091 23.091 0 0 0 723.026 13.503 A 30.253 30.253 0 0 0 720.95 17.551 A 35.496 35.496 0 0 0 718.692 25.396 Q 718 29.399 718 34.001 A 51.841 51.841 0 0 0 718.565 41.845 Q 719.291 46.585 720.95 50.551 A 29.487 29.487 0 0 0 724.221 56.468 A 22.983 22.983 0 0 0 729.15 61.501 A 19.796 19.796 0 0 0 740.532 65.386 A 24.557 24.557 0 0 0 741.4 65.401 Z M 374.6 4.001 L 374.6 64.401 L 385.8 64.401 Q 395.2 64.401 401.05 60.401 Q 406.9 56.401 409.65 49.551 A 37.711 37.711 0 0 0 411.997 40.391 A 48.92 48.92 0 0 0 412.4 34.001 Q 412.4 25.301 409.65 18.501 Q 406.9 11.701 401.05 7.851 A 21.837 21.837 0 0 0 394.431 4.994 Q 391.553 4.253 388.165 4.065 A 42.678 42.678 0 0 0 385.8 4.001 L 374.6 4.001 Z M 434.6 33.401 L 434.6 64.401 L 448.6 64.401 Q 455.834 64.401 460.939 62.514 A 20.395 20.395 0 0 0 465 60.501 A 12.744 12.744 0 0 0 470.752 51.428 A 20.081 20.081 0 0 0 471 48.201 A 15.125 15.125 0 0 0 470.309 43.5 A 11.727 11.727 0 0 0 465.15 37.051 A 20.853 20.853 0 0 0 459.847 34.759 Q 457.265 34.016 454.143 33.68 A 51.85 51.85 0 0 0 448.6 33.401 L 434.6 33.401 Z M 50.2 4.001 L 50.2 33.201 L 64 33.201 A 36.692 36.692 0 0 0 69.33 32.84 Q 72.031 32.442 74.223 31.608 A 15.598 15.598 0 0 0 78.1 29.501 A 11.878 11.878 0 0 0 82.557 22.42 A 18.871 18.871 0 0 0 83 18.201 A 19.441 19.441 0 0 0 82.612 14.177 Q 82.102 11.766 80.918 9.987 A 9.745 9.745 0 0 0 78.1 7.201 A 16.934 16.934 0 0 0 73.667 5.205 Q 71.529 4.565 68.934 4.265 A 43.108 43.108 0 0 0 64 4.001 L 50.2 4.001 Z M 787 4.001 L 787 33.201 L 800.8 33.201 A 36.692 36.692 0 0 0 806.13 32.84 Q 808.831 32.442 811.023 31.608 A 15.598 15.598 0 0 0 814.9 29.501 A 11.878 11.878 0 0 0 819.357 22.42 A 18.871 18.871 0 0 0 819.8 18.201 A 19.441 19.441 0 0 0 819.412 14.177 Q 818.902 11.766 817.718 9.987 A 9.745 9.745 0 0 0 814.9 7.201 A 16.934 16.934 0 0 0 810.467 5.205 Q 808.329 4.565 805.734 4.265 A 43.108 43.108 0 0 0 800.8 4.001 L 787 4.001 Z M 434.6 4.001 L 434.6 30.601 L 446.6 30.601 A 52.133 52.133 0 0 0 451.907 30.351 Q 457.266 29.8 460.546 28.04 A 11.942 11.942 0 0 0 462.1 27.051 A 11.269 11.269 0 0 0 466.727 18.886 A 14.686 14.686 0 0 0 466.8 17.401 A 17.044 17.044 0 0 0 466.382 13.491 Q 465.772 10.904 464.271 9.101 A 9.631 9.631 0 0 0 461.8 7.001 Q 456.9 4.061 447.584 4.002 A 60.565 60.565 0 0 0 447.2 4.001 L 434.6 4.001 Z M 497 27.601 L 492.3 40.801 L 517.2 40.801 L 512.6 27.601 Q 510.5 21.601 508.65 16.151 A 288.658 288.658 0 0 1 506.016 7.981 A 334.921 334.921 0 0 1 505 4.601 L 504.6 4.601 A 314.034 314.034 0 0 1 501.987 13.034 A 270.035 270.035 0 0 1 500.95 16.151 Q 499.1 21.601 497 27.601 Z" vector-effect="non-scaling-stroke"/></g></svg>