<svg width="897.3" height="68.302" viewBox="0 0 897.3 68.302" xmlns="http://www.w3.org/2000/svg"><g id="svgGroup" stroke-linecap="round" fill-rule="evenodd" font-size="9pt" stroke="#101828" stroke-width="0.25mm" fill="#101828" style="stroke:#101828;stroke-width:0.25mm;fill:#101828"><path d="M 850.4 67.101 L 846.1 67.101 L 846.1 1.201 L 852.6 1.201 L 866.4 39.901 Q 867.7 43.501 869 47.151 Q 870.3 50.801 871.6 54.501 L 872 54.501 Q 873.3 50.801 874.5 47.151 Q 875.7 43.501 877 39.901 L 890.7 1.201 L 897.3 1.201 L 897.3 67.101 L 892.8 67.101 L 892.8 23.801 Q 892.8 19.701 893 14.901 Q 893.2 10.101 893.4 6.001 L 893 6.001 L 887.9 20.701 L 873.7 59.901 L 869.7 59.901 L 855.4 20.701 L 850.2 6.001 L 849.8 6.001 Q 850 10.101 850.2 14.901 Q 850.4 19.701 850.4 23.801 L 850.4 67.101 Z M 607.6 67.101 L 603 67.101 L 603 1.201 L 607.6 1.201 L 607.6 37.801 L 607.8 37.801 L 639.7 1.201 L 645.2 1.201 L 624.2 25.601 L 648.1 67.101 L 642.8 67.101 L 621 29.101 L 607.6 44.401 L 607.6 67.101 Z M 139.2 67.101 L 102.1 67.101 L 102.1 1.201 L 138.2 1.201 L 138.2 5.201 L 106.7 5.201 L 106.7 30.101 L 133.1 30.101 L 133.1 34.101 L 106.7 34.101 L 106.7 63.101 L 139.2 63.101 L 139.2 67.101 Z M 190.7 67.101 L 153.6 67.101 L 153.6 1.201 L 189.7 1.201 L 189.7 5.201 L 158.2 5.201 L 158.2 30.101 L 184.6 30.101 L 184.6 34.101 L 158.2 34.101 L 158.2 63.101 L 190.7 63.101 L 190.7 67.101 Z M 309.9 67.101 L 272.8 67.101 L 272.8 1.201 L 308.9 1.201 L 308.9 5.201 L 277.4 5.201 L 277.4 30.101 L 303.8 30.101 L 303.8 34.101 L 277.4 34.101 L 277.4 63.101 L 309.9 63.101 L 309.9 67.101 Z M 361.4 67.101 L 324.3 67.101 L 324.3 1.201 L 360.4 1.201 L 360.4 5.201 L 328.9 5.201 L 328.9 30.101 L 355.3 30.101 L 355.3 34.101 L 328.9 34.101 L 328.9 63.101 L 361.4 63.101 L 361.4 67.101 Z M 587.7 7.901 L 585 11.001 Q 582.3 7.901 578.7 6.051 A 16.819 16.819 0 0 0 572.526 4.289 A 20.561 20.561 0 0 0 570.6 4.201 A 23.819 23.819 0 0 0 563.985 5.085 A 19.692 19.692 0 0 0 558.15 7.851 Q 552.9 11.501 550.05 18.151 Q 547.384 24.372 547.212 32.826 A 57.828 57.828 0 0 0 547.2 34.001 Q 547.2 43.023 549.952 49.784 A 31.277 31.277 0 0 0 550 49.901 A 27.146 27.146 0 0 0 553.141 55.595 A 21.382 21.382 0 0 0 557.95 60.401 Q 563.1 64.101 570.2 64.101 A 21.734 21.734 0 0 0 575.308 63.522 A 17.938 17.938 0 0 0 579.3 62.051 A 23.875 23.875 0 0 0 583.791 59.029 A 31.589 31.589 0 0 0 586.9 56.001 L 589.6 58.901 A 31.867 31.867 0 0 1 583.113 64.552 A 29.227 29.227 0 0 1 581.1 65.751 A 20.677 20.677 0 0 1 574.651 67.927 A 27.771 27.771 0 0 1 570 68.301 A 26.534 26.534 0 0 1 561.033 66.82 A 24.141 24.141 0 0 1 555.65 64.101 A 26.592 26.592 0 0 1 547.595 55.456 A 33.519 33.519 0 0 1 545.9 52.201 A 37.544 37.544 0 0 1 543.169 43.229 Q 542.448 39.192 542.403 34.614 A 62.269 62.269 0 0 1 542.4 34.001 A 52.127 52.127 0 0 1 543.067 25.441 Q 543.939 20.206 545.95 15.901 A 30.237 30.237 0 0 1 550.576 8.71 A 25.782 25.782 0 0 1 555.8 4.151 A 25.203 25.203 0 0 1 567.361 0.153 A 31.749 31.749 0 0 1 570.5 0.001 Q 576.3 0.001 580.7 2.401 A 28.833 28.833 0 0 1 584.318 4.72 Q 586.217 6.159 587.611 7.795 A 17.976 17.976 0 0 1 587.7 7.901 Z M 52.3 67.101 L 47.7 67.101 L 47.7 1.201 L 66.6 1.201 A 39.66 39.66 0 0 1 72.877 1.668 Q 76.26 2.211 79.019 3.385 A 19.872 19.872 0 0 1 82.3 5.151 Q 87.706 8.77 88.159 17.049 A 28.434 28.434 0 0 1 88.2 18.601 A 22.107 22.107 0 0 1 87.638 23.735 A 14.812 14.812 0 0 1 83.65 31.001 A 18.399 18.399 0 0 1 76.719 35.25 A 26.327 26.327 0 0 1 71.3 36.501 L 89.5 67.101 L 84.2 67.101 L 66.3 36.801 L 52.3 36.801 L 52.3 67.101 Z M 796.3 67.101 L 791.7 67.101 L 791.7 1.201 L 810.6 1.201 A 39.66 39.66 0 0 1 816.877 1.668 Q 820.26 2.211 823.019 3.385 A 19.872 19.872 0 0 1 826.3 5.151 Q 831.706 8.77 832.159 17.049 A 28.434 28.434 0 0 1 832.2 18.601 A 22.107 22.107 0 0 1 831.638 23.735 A 14.812 14.812 0 0 1 827.65 31.001 A 18.399 18.399 0 0 1 820.719 35.25 A 26.327 26.327 0 0 1 815.3 36.501 L 833.5 67.101 L 828.2 67.101 L 810.3 36.801 L 796.3 36.801 L 796.3 67.101 Z M 4.6 67.101 L 0 67.101 L 0 1.201 L 35.9 1.201 L 35.9 5.201 L 4.6 5.201 L 4.6 31.401 L 31.1 31.401 L 31.1 35.401 L 4.6 35.401 L 4.6 67.101 Z M 229.7 67.101 L 225.1 67.101 L 225.1 1.201 L 261 1.201 L 261 5.201 L 229.7 5.201 L 229.7 31.401 L 256.2 31.401 L 256.2 35.401 L 229.7 35.401 L 229.7 67.101 Z M 683.4 67.101 L 678.8 67.101 L 678.8 1.201 L 714.7 1.201 L 714.7 5.201 L 683.4 5.201 L 683.4 31.401 L 709.9 31.401 L 709.9 35.401 L 683.4 35.401 L 683.4 67.101 Z M 489.7 67.101 L 485.1 67.101 L 508.3 1.201 L 512.9 1.201 L 536.1 67.101 L 531.3 67.101 L 523.6 44.501 L 497.5 44.501 L 489.7 67.101 Z M 455.3 67.101 L 436.2 67.101 L 436.2 1.201 L 454 1.201 Q 461.215 1.201 466.296 3.205 A 20.006 20.006 0 0 1 469.9 5.051 A 12.565 12.565 0 0 1 475.537 13.897 A 19.818 19.818 0 0 1 475.8 17.201 A 17.501 17.501 0 0 1 475.13 22.134 A 14.664 14.664 0 0 1 473.2 26.251 A 12.953 12.953 0 0 1 467.408 30.948 A 17.031 17.031 0 0 1 465.6 31.601 L 465.6 32.001 A 20.485 20.485 0 0 1 470.804 33.496 A 16.105 16.105 0 0 1 475.9 37.051 A 13.607 13.607 0 0 1 479.418 43.914 A 19.793 19.793 0 0 1 479.8 47.901 Q 479.8 57.401 473.15 62.251 Q 467.45 66.408 458.406 67.002 A 47.43 47.43 0 0 1 455.3 67.101 Z M 391.2 67.101 L 375.8 67.101 L 375.8 1.201 L 391.1 1.201 A 42.27 42.27 0 0 1 398.244 1.77 Q 403.775 2.72 407.9 5.251 Q 414.5 9.301 417.75 16.601 A 36.131 36.131 0 0 1 420.286 25.119 Q 420.955 28.957 420.997 33.317 A 60.811 60.811 0 0 1 421 33.901 A 51.999 51.999 0 0 1 420.333 42.44 A 37.68 37.68 0 0 1 417.75 51.351 Q 414.5 58.801 407.9 62.951 A 25.672 25.672 0 0 1 400.032 66.158 Q 396.767 66.924 392.977 67.068 A 46.939 46.939 0 0 1 391.2 67.101 Z M 740.228 66.641 A 24.907 24.907 0 0 0 749.4 68.301 A 29.27 29.27 0 0 0 750.7 68.272 A 23.758 23.758 0 0 0 763.5 64.051 Q 769.6 59.801 773.1 52.101 Q 776.6 44.401 776.6 33.901 A 61.081 61.081 0 0 0 776.597 33.294 Q 776.497 23.278 773.1 15.901 Q 769.6 8.301 763.5 4.151 A 23.33 23.33 0 0 0 757.799 1.314 A 26.151 26.151 0 0 0 749.4 0.001 A 29.377 29.377 0 0 0 748.298 0.021 A 24.053 24.053 0 0 0 735.4 4.151 A 25.607 25.607 0 0 0 730.063 9.026 A 31.132 31.132 0 0 0 725.8 15.901 A 32.353 32.353 0 0 0 725.618 16.304 Q 723.791 20.418 722.97 25.337 A 52.038 52.038 0 0 0 722.3 33.901 A 62.269 62.269 0 0 0 722.303 34.514 Q 722.348 39.092 723.069 43.129 A 37.544 37.544 0 0 0 725.8 52.101 A 34.378 34.378 0 0 0 727.843 55.948 A 27.031 27.031 0 0 0 735.4 64.051 A 23.302 23.302 0 0 0 740.228 66.641 Z M 749.4 64.101 A 20.152 20.152 0 0 0 756.4 62.914 A 18.334 18.334 0 0 0 761.1 60.351 A 22.427 22.427 0 0 0 766.715 54.115 A 29.663 29.663 0 0 0 768.9 49.801 A 35.802 35.802 0 0 0 771.085 41.927 Q 771.7 38.166 771.7 33.901 Q 771.7 24.801 768.9 18.151 A 27.485 27.485 0 0 0 765.792 12.576 A 21.5 21.5 0 0 0 761.1 7.851 A 19.013 19.013 0 0 0 750.692 4.236 A 23.724 23.724 0 0 0 749.4 4.201 Q 742.7 4.201 737.7 7.851 A 22.096 22.096 0 0 0 731.892 14.243 A 28.952 28.952 0 0 0 729.9 18.151 Q 727.1 24.801 727.1 33.901 Q 727.1 42.923 729.852 49.684 A 31.277 31.277 0 0 0 729.9 49.801 Q 732.7 56.601 737.7 60.351 A 18.759 18.759 0 0 0 748.466 64.082 A 23.322 23.322 0 0 0 749.4 64.101 Z M 380.4 5.101 L 380.4 63.201 L 390.6 63.201 Q 399.6 63.201 405.25 59.451 Q 410.9 55.701 413.55 49.101 Q 416.2 42.501 416.2 33.901 Q 416.2 25.301 413.55 18.851 Q 410.9 12.401 405.25 8.751 Q 399.6 5.101 390.6 5.101 L 380.4 5.101 Z M 440.8 34.001 L 440.8 63.301 L 454.1 63.301 A 42.223 42.223 0 0 0 460.09 62.903 Q 463.241 62.45 465.822 61.484 A 19.409 19.409 0 0 0 469.6 59.601 A 12.104 12.104 0 0 0 475.1 50.816 A 18.943 18.943 0 0 0 475.3 48.001 A 14.284 14.284 0 0 0 474.644 43.551 A 11.091 11.091 0 0 0 469.75 37.451 A 19.851 19.851 0 0 0 464.72 35.282 Q 460.255 34.001 454.1 34.001 L 440.8 34.001 Z M 52.3 5.101 L 52.3 33.001 L 65.4 33.001 A 34.34 34.34 0 0 0 70.447 32.654 Q 73.088 32.261 75.226 31.422 A 14.961 14.961 0 0 0 78.8 29.451 A 11.387 11.387 0 0 0 83.064 22.701 A 18.096 18.096 0 0 0 83.5 18.601 Q 83.5 11.201 78.8 8.151 Q 74.1 5.101 65.4 5.101 L 52.3 5.101 Z M 796.3 5.101 L 796.3 33.001 L 809.4 33.001 A 34.34 34.34 0 0 0 814.447 32.654 Q 817.088 32.261 819.226 31.422 A 14.961 14.961 0 0 0 822.8 29.451 A 11.387 11.387 0 0 0 827.064 22.701 A 18.096 18.096 0 0 0 827.5 18.601 Q 827.5 11.201 822.8 8.151 Q 818.1 5.101 809.4 5.101 L 796.3 5.101 Z M 440.8 5.001 L 440.8 30.201 L 452.2 30.201 A 48.434 48.434 0 0 0 457.167 29.965 Q 463.482 29.311 466.75 26.851 A 10.652 10.652 0 0 0 471.13 19.113 A 14.011 14.011 0 0 0 471.2 17.701 A 16.234 16.234 0 0 0 470.807 14.001 Q 470.238 11.568 468.841 9.866 A 9.098 9.098 0 0 0 466.5 7.851 A 16.427 16.427 0 0 0 462.554 6.171 Q 458.53 5.001 452.7 5.001 L 440.8 5.001 Z M 503.1 28.301 L 498.9 40.601 L 522.3 40.601 L 518.1 28.301 Q 516.1 22.401 514.3 17.001 Q 512.5 11.601 510.8 5.501 L 510.4 5.501 Q 508.7 11.601 506.9 17.001 Q 505.1 22.401 503.1 28.301 Z" vector-effect="non-scaling-stroke"/></g></svg>