<?xml version="1.0" encoding="utf-8"?>
<!-- Generator: Adobe Illustrator 27.0.0, SVG Export Plug-In . SVG Version: 6.00 Build 0)  -->
<svg version="1.1" id="Layer_1" xmlns="http://www.w3.org/2000/svg" xmlns:xlink="http://www.w3.org/1999/xlink" x="0px" y="0px"
	 viewBox="0 0 3511.81 2000" style="enable-background:new 0 0 3511.81 2000;" xml:space="preserve">
<style type="text/css">
	.st0{fill:#FFFFFF;}
	.st1{fill:#1F73B5;}
	.st2{opacity:0.4;fill:#5E92DD;}
	.st3{fill:#68BDFF;}
	.st4{fill:#DCEAFF;}
	.st5{fill:#3689C9;}
	.st6{fill:#2E3552;}
	.st7{fill:#FFB27D;}
	.st8{fill:#E8945B;}
	.st9{fill:#A4DE8A;}
	.st10{fill:#F05E75;}
	.st11{fill:#D6455B;}
	.st12{fill:#D9935C;}
	.st13{fill:#466AA5;}
	.st14{fill:#6BB54A;}
	.st15{fill:#ED975D;}
	.st16{fill:#94B7EB;}
	.st17{fill:none;stroke:#94B7EB;stroke-width:11;stroke-linejoin:round;stroke-miterlimit:10;}
</style>
<g>
	<path class="st0" d="M360.97,1846.35c-178.48-143.3-191.73-254.55-80.66-398.33c85.39-110.54-296.28-443.12,20.42-808.88
		c316.7-365.77,1090.75-599.48,1837.79-276.05c473.9,205.17,693.33-179.15,1013.39,250c308.58,413.75,57.59,1027.25-231.79,1233.28
		C1810.86,1846.37,360.97,1846.35,360.97,1846.35z"/>
	<g>
		<g>
			<path class="st1" d="M2069.25,503.63v1302.31c0,20.41-16.71,37.11-37.14,37.11h-651.22c-20.42,0-37.12-16.7-37.12-37.11V503.63
				c0-20.42,16.69-37.13,37.12-37.13h651.22C2052.53,466.5,2069.25,483.21,2069.25,503.63z"/>
			<g>
				<path class="st2" d="M1812.82,518.61h-188.59c-4.04,0-7.34-3.3-7.34-7.34l0,0c0-4.04,3.3-7.34,7.34-7.34h188.59
					c4.04,0,7.34,3.3,7.34,7.34l0,0C1820.16,515.31,1816.85,518.61,1812.82,518.61z"/>
				<path class="st2" d="M1590.74,518.61L1590.74,518.61c-4.04,0-7.34-3.3-7.34-7.34l0,0c0-4.04,3.3-7.34,7.34-7.34h0
					c4.04,0,7.34,3.3,7.34,7.34l0,0C1598.07,515.31,1594.77,518.61,1590.74,518.61z"/>
			</g>
			<path class="st3" d="M1762.81,1766.99c0,12.99-5.24,24.77-13.72,33.32c-8.58,8.66-20.47,14.01-33.61,14.01
				c-26.14,0-47.33-21.19-47.33-47.33c0-16.8,8.76-31.55,21.96-39.94c7.32-4.67,16.03-7.37,25.37-7.37
				C1741.62,1719.68,1762.81,1740.86,1762.81,1766.99z"/>
			<rect x="1387.21" y="551.3" class="st4" width="643.33" height="1145.11"/>
			<path class="st5" d="M1749.09,1800.31c-8.58,8.66-20.47,14.01-33.61,14.01c-26.14,0-47.33-21.19-47.33-47.33
				c0-16.8,8.76-31.55,21.96-39.94C1694.76,1747.2,1708.51,1780.9,1749.09,1800.31z"/>
		</g>
	</g>
	<path class="st6" d="M3110.27,1851.34H220.46c-2.74,0-4.98-2.24-4.98-4.98l0,0c0-2.74,2.24-4.98,4.98-4.98h2889.81
		c2.74,0,4.98,2.24,4.98,4.98l0,0C3115.25,1849.1,3113.01,1851.34,3110.27,1851.34z"/>
	<g>
		<g>
			<g>
				<g>
					<path class="st7" d="M2512.18,864.7c0-0.8,11.77-25.14,8.02-27.01c-3.74-1.87-10.45-1.59-11.23,2.67
						C2508.19,844.63,2512.18,864.7,2512.18,864.7z"/>
					<path class="st5" d="M2687.86,562.24c0,0,69.01-82.93,105.55-29.87c0,0,27.26,11.31,37.12,57.7
						c10.06,47.34-21.42,83.32-37.7,74.42c-10.44-5.7-18.34,12.56-18.34,12.56L2687.86,562.24z"/>
					<path class="st7" d="M2602.27,1003.53c-54.87-20.21-107.71-114.1-107.71-114.1l17.3-12.11c14.41,21.08,79.25,61.56,79.25,61.56
						c1.48-17.77,3.63-33.89,6.28-48.48c18-99.23,59.18-128.62,70.23-134.86c1.78-1.01,2.79-1.41,2.79-1.41s-0.04,0.73-0.12,2.11
						c-0.16,2.99-0.51,9-1.09,17.25C2664.92,834.92,2648.11,1020.43,2602.27,1003.53z"/>
					<path class="st5" d="M2785.87,523.96c0,0,9.28-37.12,63.79-25.52c0,0-26.1-3.29-33.25,6.77c0,0,20.68-9.47,33.64-1.55
						c12.95,7.93,15.08,34.6,13.15,42.72c-1.93,8.12-16.24,32.28-25.71,32.28s-20.68-8.31-20.68-8.31L2785.87,523.96z"/>
					<path class="st7" d="M2867.44,1104.85c-27.1-60.79-40.07-77.98-40.52-97.1c-0.36-15.12,7.1-31.44,21.58-71.46
						c3.41-9.43,5.76-19.13,7.21-28.93c11.46-77.14-33.15-160.54-60.88-166.22c-7.71-2.04-20.79-29.9-20.63-74.8l-3.47,0.68
						l-58.38,11.56c0,0,1.33,18.37,1.37,35.68c0.04,14.42-0.83,28.1-4.1,29.82c-4.2,0.38-6.68,0.63-6.68,0.63
						s-48.68,67.6-52.77,130.48c-4.09,62.87,38.98,90.19-0.32,215.84C2609.71,1219.36,2882.41,1138.44,2867.44,1104.85z"/>
					<path class="st8" d="M2712.35,678.59c0,0,1.33,18.37,1.37,35.68c32.67-0.92,49.94-30.72,57.01-47.24L2712.35,678.59z"/>
					<path class="st5" d="M2776.76,660.67c0,0,17.12-27.05,21.23-50.18c2.93-16.51-5.48-77.73-66.99-68.91
						c0,0-17.87,1.76-34.66,13.1c-13.36,9.02-32.63,28.49-11.08,81.91l5.6,18.04L2776.76,660.67z"/>
					<path class="st7" d="M2701.44,694.98c0,0,77.3,1.28,77.35-46.87c0.05-48.15,10.07-80.41-39.28-83.26
						c-49.35-2.85-58.96,15.51-62.89,31.58C2672.7,612.49,2681.34,693.41,2701.44,694.98z"/>
					<path class="st5" d="M2704.3,563.67c0,0,21.16,56.49,53.64,64.84c32.48,8.35,46.57-0.35,46.57-0.35s-24.91-19.79-30.08-54.34
						C2774.43,573.82,2720.27,536.78,2704.3,563.67z"/>
					<path class="st5" d="M2709.55,568.25c0,0-15.81,12.61-19.66,24.87c-3.85,12.26-5.59,37.5-12.94,36.64
						c0,0-15.94-38.39,1.98-60.11C2697.92,546.62,2709.55,568.25,2709.55,568.25z"/>
					<path class="st1" d="M2799,1688.15c-22.99,56.3-52.99,65.88-62.43-4.91c-0.51-56.17-7.45-122.56-29.65-185.94
						c-76.27-217.82-63.94-376.35-63.94-376.35l143.42,16.77l6.68,0.78c0.6,65.87,2.3,155.3,3.78,225.23
						c1.32,62.89,2.47,110.01,2.47,110.01C2826.92,1533.13,2816.9,1616.96,2799,1688.15z"/>
					<path class="st7" d="M2967.97,1169.42l-23.21,6.96c0,0-76.55-127.01-83.51-160.05c-2.27-10.76-7.84-32.29-14.33-56.41
						c-13.44-49.96-30.79-111.08-30.79-111.08l-5.71-24.74l-19.48-84.39c0,0,37.31,3.81,59.13,12.94
						c7.23,3.01,12.74,6.61,14.67,10.84c16.03,35.25,32.04,124.22,43.29,187.68c6.27,35.37,11.05,62.83,13.55,68.64
						C2928.53,1036.03,2949.8,1125.34,2967.97,1169.42z"/>
					<path class="st3" d="M2881.29,1675.8c-17.03,48.16-56.53,72.41-76.41,18c-7.77-70.12-18.42-144.32-30.47-166.96
						c-47.83-89.82-62.23-428.88-62.23-428.88l145.42-7.21c14.62,24.59,21,64.91,22.51,110.76
						c3.83,115.72-23.38,266.61-27.44,288.43c0,0.01,0,0.03-0.01,0.05c-0.32,1.69,0.17,3.35,0.96,4.87
						C2882.53,1552.14,2886.72,1617.66,2881.29,1675.8z"/>
					<path class="st5" d="M2706.61,570.16c0,0,15.08,59.15,56.06,78.1c0,0-40.98-36.34-44.46-75.39
						C2714.73,533.82,2706.61,570.16,2706.61,570.16z"/>
					<path class="st9" d="M2885.67,1148.74c0.25,4.9-0.01,8.82-0.9,11.62c-3.09,9.74-13.72,14.17-39.41,11.51
						c-15.7-1.63-22.7-27.95-25.82-50.39c-9.43,32.12-22.63,50.14-39.7,53.93c-24.91,5.54-150.53,20.81-158.75-38.91
						c-9.05-65.68,18.04-181.98,19.53-244.69c-3.69-22.24-4.96-41.53-4.56-58.11c1.05-44.67,14.16-69.71,24.24-79.79
						c2.85-2.19,5.71-3.56,17.17-5.53c5.86-1,13.97-2.15,25.48-3.66c0,0,4.69-0.53,4.59-0.36c-2.13,3.8-30.58,46.88-28.36,57.96
						c2.32,11.6,103.23,1.15,110.19-5.22c6.96-6.38,17.97-55.23,17.97-55.23s35.73,3.9,53.21,16.62c0,0-0.07,0.08-0.19,0.22
						c2.11,1.51,3.69,3.12,4.59,4.84c18.65,35.5,37.27,125.11,50.37,189.02c-31.74,17.49-59.48,12.29-68.09,9.98
						C2858.48,1036.16,2884,1115.2,2885.67,1148.74z"/>
					<path class="st7" d="M2511.86,877.32c0.01-2.39,2-36.91-4.15-44.17c-6.15-7.25-18.69-17.57-22.64-17.25
						c-3.95,0.32-19.38,20.83-14.74,36.54c4.64,15.72,24.22,36.98,24.22,36.98C2502.55,888.49,2508.35,884.49,2511.86,877.32z"/>
					<g>
						<g>
							<path class="st10" d="M2293.92,826.75c9.03,14.89,26.02,21.1,37.94,13.87c11.93-7.23,14.27-25.17,5.24-40.06
								c-9.03-14.89-26.02-21.1-37.94-13.87C2287.24,793.93,2284.89,811.86,2293.92,826.75z"/>
							<g>
								<path class="st11" d="M2462.56,800.77l9.38-4.89c1.29-0.67,1.8-2.27,1.12-3.57l-3.2-6.15c-0.67-1.3-2.27-1.8-3.57-1.12
									l-9.38,4.89c-1.3,0.67-1.8,2.27-1.12,3.57l3.2,6.15C2459.67,800.94,2461.27,801.45,2462.56,800.77z"/>
								<path class="st10" d="M2477.51,742.82c12.69,28.17,33.27,55.89,42.81,90.11c3.22,11.53-6.8,25.52-15.15,27.56
									c-8.2,1.99-12.55-2.18-15.83-8.48c-3.29-6.31-3.49-25.95-10.28-38.98c-6.79-13.03-33.62-26.36-42.72-43.83
									C2427.25,751.72,2477.51,742.82,2477.51,742.82z"/>
								<path class="st10" d="M2473.25,754.41l10.63-5.54c11.04-5.75,15.34-19.37,9.58-30.41l-3.66-7.03
									c-5.75-11.04-19.37-15.34-30.41-9.58l-10.63,5.54c-11.05,5.75-15.34,19.37-9.58,30.41l3.66,7.03
									C2448.58,755.87,2462.2,760.16,2473.25,754.41z"/>
								<path class="st10" d="M2355.43,887.2c24.35-55.82,58.53-94.25,86.96-112.77l-26.98-48.48
									c-36.17,11.06-87.91,14.32-140.34,6.95L2355.43,887.2z"/>
								<path class="st11" d="M2358.37,893.38l0.43-0.23c4.46-2.32,6.2-7.83,3.87-12.29c-27.34-42.49-53.25-93.61-78.26-150.27
									c-2.32-4.46-7.83-6.2-12.29-3.87l-0.43,0.23c-4.46,2.32-6.2,7.83-3.87,12.29c24.94,58.71,50.96,109.28,78.26,150.27
									C2348.4,893.97,2353.9,895.7,2358.37,893.38z"/>
							</g>
							<path class="st11" d="M2414.26,758.68c11.76,21.11,28.59,20.46,49.7,8.7c21.11-11.76,22.75-27.47,9.74-47.84
								c-14.1-22.08-27.17-17.41-48.29-5.65C2404.3,725.64,2402.5,737.56,2414.26,758.68z"/>
						</g>
					</g>
					<path class="st7" d="M2881.29,1675.8c-8.25,88.01-44.56,144.92-44.56,144.92l-12.4,11.29c0,0-11.3-64.44-19.46-138.21
						C2813.46,1694.42,2851.35,1695.8,2881.29,1675.8z"/>
					<path class="st12" d="M2799,1688.15c-19.45,77.36-48.72,136.67-48.72,136.67l-25.49-1.77c0,0,12.5-59.47,11.78-139.81
						C2745.22,1687.59,2763.07,1692.02,2799,1688.15z"/>
					<g>
						<path class="st5" d="M2764.96,1846.19h-16.27c-5.45-0.86-9.48-2.44-15.07-3.17c-8.49-1.11-12.4,2.37-13.18,3.17
							c-0.1,0.1-0.15,0.16-0.15,0.16h-69.13c-1.74-2.48-0.07-8.23,1.57-12.47c1.1-2.88,3.5-5.06,6.47-5.92
							c7.33-2.12,21.78-4.01,35.02-15.99c7.45-6.73,35.96-24.74,35.96-24.74l0.15-0.03c0.63,0.01,3.61,0.93,16.57,11.88
							c6.7,5.65,18.13-7.98,18.13-7.98s2.15,1.77,3.75,5.08c1.29,2.61,2.23,6.19,1.48,10.61c-1.03,6.23,2.3,17.8,4.95,25.63
							c1.61,4.74,2.97,8.11,2.97,8.11S2778.96,1844.44,2764.96,1846.19z"/>
						<path class="st13" d="M2768.77,1796.18c-3.89,2.74-12.09,8.13-17.53,8.84c-7.34,0.96-21.07-17.78-21.07-17.78l0.15-0.03
							c0.63,0.01,3.61,0.93,16.57,11.88c6.7,5.65,18.13-7.98,18.13-7.98S2767.17,1792.87,2768.77,1796.18z"/>
						<path class="st13" d="M2764.96,1846.19h-16.27c-5.45-0.86-9.48-2.44-15.07-3.17c-8.49-1.11-12.4,2.37-13.18,3.17
							c-0.1,0.1-0.15,0.16-0.15,0.16h-69.13c-1.74-2.48-0.07-8.23,1.57-12.47c2.1-1.87,2.69,8.11,3.85,9.7
							c1.16,1.59,56.39,0.58,59.58-1.74c3.19-2.32,12.76-6.38,26.1-3.19c11.61,2.77,28.72-4.34,32.95-6.23
							c1.61,4.74,2.97,8.11,2.97,8.11S2778.96,1844.44,2764.96,1846.19z"/>
					</g>
					<g>
						<path class="st5" d="M2851.8,1846.19h-16.27c-5.45-0.86-9.48-2.44-15.07-3.17c-8.49-1.11-12.4,2.37-13.18,3.17
							c-0.1,0.1-0.15,0.16-0.15,0.16H2738c-1.74-2.48-0.07-8.23,1.57-12.47c1.1-2.88,3.5-5.06,6.47-5.92
							c7.33-2.12,21.78-4.01,35.02-15.99c7.45-6.73,35.96-24.74,35.96-24.74l0.15-0.03c0.63,0.01,3.61,0.93,16.57,11.88
							c6.7,5.65,18.13-7.98,18.13-7.98s2.15,1.77,3.75,5.08c1.29,2.61,2.23,6.19,1.48,10.61c-1.03,6.23,2.3,17.8,4.95,25.63
							c1.61,4.74,2.97,8.11,2.97,8.11S2865.79,1844.44,2851.8,1846.19z"/>
						<path class="st13" d="M2855.61,1796.18c-3.89,2.74-12.08,8.13-17.53,8.84c-7.34,0.96-21.07-17.78-21.07-17.78l0.15-0.03
							c0.63,0.01,3.61,0.93,16.57,11.88c6.7,5.65,18.13-7.98,18.13-7.98S2854.01,1792.87,2855.61,1796.18z"/>
						<path class="st13" d="M2851.8,1846.19h-16.27c-5.45-0.86-9.48-2.44-15.07-3.17c-8.49-1.11-12.4,2.37-13.18,3.17
							c-0.1,0.1-0.15,0.16-0.15,0.16H2738c-1.74-2.48-0.07-8.23,1.57-12.47c2.1-1.87,2.69,8.11,3.85,9.7
							c1.16,1.59,56.39,0.58,59.58-1.74c3.19-2.32,12.76-6.38,26.09-3.19c11.61,2.77,28.72-4.34,32.95-6.23
							c1.61,4.74,2.97,8.11,2.97,8.11S2865.79,1844.44,2851.8,1846.19z"/>
					</g>
					<path class="st14" d="M2885.67,1148.74c-17.25-5.77-39.39-21.09-65.99-55.46c-70.4-90.99-5.98-197.91,2.66-199.9
						c8.63-1.99,24.89,69.18,24.89,69.18C2858.48,1036.16,2884,1115.2,2885.67,1148.74z"/>
					<path class="st9" d="M2664.61,751.87c0,0-48.21,24.26-64.26,122.15c0,0,15.79,21.64,38.03,28.03c3.18,0.91,6.49,1.51,9.9,1.69
						C2675.58,905.2,2664.61,751.87,2664.61,751.87z"/>
					<path class="st7" d="M2480.83,819.2c0,0,15.46-23.58,19.1-22.3c5.2,1.82-13.51,30.91-13.51,30.91s13.86-21.74,16.03-20.1
						c4.93,3.72-2.92,17.38-10.71,27.85c0,0,13.94-12.76,14.39-10.46c1.59,8.05-21.68,37.93-21.68,37.93l-8.65-26.44L2480.83,819.2z
						"/>
					<path class="st7" d="M2470.21,839.83c0.72-2.8,4.36-57.55,5.91-52.35c1.56,5.19,5.26,33.9,5.26,33.9L2470.21,839.83z"/>
				</g>
			</g>
			<path class="st0" d="M2716.54,666.4c0,0-1.34,5.67-15.45,4.8c0,0-11.85-0.73-11.49-6.97
				C2689.6,664.23,2701.09,659.79,2716.54,666.4z"/>
		</g>
		<path class="st7" d="M2967.97,1169.42c0,0,27.99,18.61,32.27,26.46c4.28,7.84,14.26,36.73,14.26,36.73s-7.13,1.07-14.26-11.41
			c-7.13-12.48-30.67-11.41-38.51-18.19c-7.85-6.78-16.97-26.63-16.97-26.63C2948.65,1169.68,2957.04,1168.1,2967.97,1169.42z"/>
		<path class="st7" d="M2947.81,1182.51c0,0,4.65,21.92,10.36,28.33c5.71,6.42,13.55,17.12,16.76,14.26
			c3.21-2.85-3.57-26.74-3.57-26.74L2947.81,1182.51z"/>
		<path class="st7" d="M2996.32,1198.37c0.71,1.07,25.32,27.22,25.32,27.22s-8.91,4.04-11.41,0
			C3007.73,1221.54,2996.32,1198.37,2996.32,1198.37z"/>
	</g>
	<g>
		<g>
			<g id="man_2_">
				<path class="st7" d="M1026.7,784.85c-5.4,15.76-9.4,26.65-19.97,31.16c-11.98,5.11-16.98,12.33-16.98,12.33l-9.67-5.62
					l-11.55-6.72c0,0,0.27-1.28,0.84-3.37c0.56-2.08,1.43-3.84,2.98-10.27c1.55-6.43,0.45-21.44,2.96-28.15
					c2.29-6.12,7.28-18.65,9.51-18.26c5.4,0.93-0.5,16.14,1.81,19.52c2.09,3.06,2.55,5.04,3.04,4.81c0.03-0.02,0.06-0.03,0.09-0.05
					c15.16-6.66,23.17-35.52,31.31-30.67C1024.11,751.39,1029.89,775.55,1026.7,784.85z"/>
				<path class="st5" d="M708.35,700.19c0,0,96.62,168.52,131.67,199.52l128.52-95.82c0,0,18.65,5.72,26.82,24.44
					c0,0-78.04,159.01-154.89,165.75c-76.84,6.74-184.69-190.59-184.69-190.59L708.35,700.19z"/>
				<g>
					<path class="st5" d="M489.71,1846.35h-55.82c-7.03-3.82-13.29-12.55-15.27-25.58c-2.73-17.99-22.88-27.79-27.25-42.5
						c-4.35-14.7,17.98-35.4,17.98-35.4l3.74-4.82l3.89-5l37.05,8.72c0,0,0.92,8.83,1.47,20.07c0.4,8.11,0.62,17.48,0.16,25.7
						c-1.09,19.61,5.48,40.74,22.91,44.55C491.47,1834.91,490.89,1842.56,489.71,1846.35z"/>
					<path class="st5" d="M813.69,1846.35H686.02c-6.14-7.49-3.88-35.14-2.95-44.17c0.19-1.82,0.32-2.88,0.32-2.88
						s43.6-34.87,49.58-8.17c0.18,0.84,0.4,1.66,0.65,2.46c7.54,24.97,41.38,36.32,60.92,39.48
						C807.25,1835.14,811.95,1841.75,813.69,1846.35z"/>
					<path class="st9" d="M789.36,1133.75c0,0-6.62,82.59-14.4,181.87c-10.58,134.86-23.29,300.51-24.55,331.9
						c-2.17,54.49-10.9,141.66-10.9,141.66s-20.69,20.71-62.11,11.98c0,0-36.91-124.43-47.45-256.09c-0.16-2.16-0.33-4.33-0.49-6.51
						c-9.81-134.03-25.06-416.25-25.06-416.25L789.36,1133.75z"/>
					<path class="st14" d="M789.36,1133.75c0,0-6.62,82.59-14.4,181.87l-145.01,229.45c-0.16-2.16-0.33-4.33-0.49-6.51
						c-9.81-134.03-25.06-416.25-25.06-416.25L789.36,1133.75z"/>
					<path class="st9" d="M759.13,1143.55c0,0-119.32,299.11-197.77,439.67c-78.46,140.56-102.97,179.79-102.97,179.79
						s-44.95-17.98-49.03-30.24c0,0,30-271.37,82.54-337.52c29.69-37.38,64.56-149.55,66.2-188.78
						c1.63-39.23,10.62-116.86,10.62-116.86L759.13,1143.55z"/>
				</g>
				<path class="st7" d="M729.43,707.52c-46.62,14.71-127.3-24.99-127.3-24.99s42.99-32.26,40.74-99.35l36.05,29.05l24.49,19.73
					c0,0-0.1,11.63-2.78,32.02c-0.71,5.36-1.58,11.34-2.7,17.87C717.95,692.84,729.43,707.52,729.43,707.52z"/>
				<path class="st15" d="M703.41,631.96c0,0-0.1,11.63-2.78,32.02c-27.13-4.66-57.91-48.51-57.91-48.51
					c13.81-3.99,25.91-4.71,36.2-3.24L703.41,631.96z"/>
				<path class="st7" d="M717.66,630.86c0,0-77.01,12.79-84.24-35.29c-7.23-48.08-22.04-78.82,26.83-89.02
					c48.87-10.2,61.2,6.71,67.52,22.17C734.08,544.18,737.51,626.29,717.66,630.86z"/>
				<path class="st3" d="M794.51,1140.63c-1.4,1.16-3.03,1.87-4.9,1.87c-17.51-0.24-68.57,9.49-111.77,5.05
					c-36.42-3.5-68.66-14.29-103.27-29.8c-4.6-2.06-15.18-7.71-14.94-12.85c0.15-5.63,0.71-13.79,1.41-24.06
					c2.45-35.73,6.72-97.19,2.56-168.1c-0.75-13.2-1.14-26.3-1.19-39.19c-0.36-96.1,18.7-180.62,56.99-209.23
					c3.27-2.34,23.35,7.47,41.8,16.57c17.04,8.41,34.09,9.34,50.2,6.08l16.11,14.24c19.61,18.21,41.1,42.96,50.43,80.55
					c7.95,31.98,12.61,89.66,15.18,149.43c1.17,27.08,2.11,54.4,2.34,80.32v0.93c0.23,2.57,0.23,5.38,0.23,7.95
					C796.61,1086.92,795.67,1139.69,794.51,1140.63z"/>
				<path class="st5" d="M561.04,1080.83c2.45-35.73,6.72-97.19,2.56-168.1c-0.75-13.2-1.14-26.3-1.19-39.19
					c15.95-38.69,28.99-66.75,28.99-66.75h40.2C631.6,806.79,661.07,1008.12,561.04,1080.83z"/>
				<path class="st7" d="M485.49,1087.75c0,0-9.01,11.99-9.36,16.79c-1.36,18.27-1.25,34.96-2.9,40.4
					c-3.88,12.81-6.68,26.9-12.68,29.23c-6,2.33-20.09-24.75-20.55-30.61c-1.45-18.39,2.7-34.78,15.22-50.99l7.71-16.54
					L485.49,1087.75z"/>
				<path class="st3" d="M462.59,1096.94c14.48,2.82,30.17,1.68,30.17,1.68s42.98-132.77,48.51-144.9
					c5.53-12.13,127.67-155.68,127.67-155.68l-50.88-127.33c0,0-132.1,220.66-145.51,251.67c-22.16,51.23-29.86,166.11-29.86,166.11
					S451.22,1094.73,462.59,1096.94z"/>
				<path class="st3" d="M633.36,590.94c0,0,7.9-1.32,6.63-12.21c-1.27-10.89-1.26-25.11,7.59-22.46c8.85,2.65,9.29,9.74,12.93,5.6
					c3.64-4.14,3.7-21.57,30.04-22.79c26.34-1.21,37.04,7.95,49.28,2.57c12.25-5.38,12.89-23.92,12.89-23.92s-3.48,6.62-8.74,8.72
					c0,0,20.43-27.94-3.22-47.11c-23.65-19.16-47.77-6.62-61.46-5.79c-30.16,1.83-49.64,3.64-59.5,23.45
					C609.94,516.83,614,571.86,633.36,590.94z"/>
				<path class="st7" d="M471.28,1102.04c0,0,8.67,9.04,9.22,12.8c1.76,12.07,5.79,17.29,3.77,18.6c-4.2,2.73-9.76-6.21-12.41-14.23
					C469.2,1111.19,471.28,1102.04,471.28,1102.04z"/>
			</g>
		</g>
		<g>
			<g>
				<path class="st10" d="M1158.4,664.49c4.06,16.94-3.64,33.3-17.21,36.55c-13.56,3.25-27.85-7.84-31.91-24.78
					c-4.06-16.94,3.64-33.3,17.21-36.55C1140.06,636.46,1154.35,647.55,1158.4,664.49z"/>
				<g>
					<path class="st11" d="M1020.28,764.66l-10.1,3.13c-1.4,0.43-2.88-0.35-3.31-1.74l-2.05-6.62c-0.43-1.39,0.35-2.88,1.74-3.31
						l10.1-3.13c1.4-0.43,2.88,0.35,3.31,1.74l2.05,6.62C1022.45,762.75,1021.67,764.23,1020.28,764.66z"/>
					<path class="st10" d="M968.88,733.99c17.39,30.46,16.26,42.1,29.2,77.97c8.64,23.94,29.01,28.84,39.23,22.49
						c5.09-3.16,2.54-13.45-0.98-18.24c-4.21-5.73-14.83-17.19-19.17-31.23c-4.35-14.04,5.35-42.39-0.48-61.2
						C1010.87,704.96,968.88,733.99,968.88,733.99z"/>
					<path class="st10" d="M980.07,739.23l-11.46,3.55c-11.9,3.68-24.52-2.98-28.21-14.87l-2.34-7.57
						c-3.68-11.9,2.98-24.53,14.87-28.21l11.46-3.55c11.9-3.68,24.53,2.98,28.21,14.87l2.34,7.57
						C998.62,722.91,991.96,735.54,980.07,739.23z"/>
					<path class="st10" d="M1157.22,750.71c-44.1-15.25-97.64-23.91-141.14-18.97l-14.94-53.44c35.76-9.41,74.87-43.35,104.63-93.79
						L1157.22,750.71z"/>
					<path class="st11" d="M1159.48,757.17l-0.47,0.15c-4.81,1.49-9.91-1.2-11.4-6.01c-10.46-49.43-28.01-103.99-50.1-161.85
						c-1.49-4.81,1.2-9.91,6.01-11.4l0.47-0.14c4.81-1.49,9.91,1.2,11.4,6.01c23.58,59.27,40.67,113.51,50.1,161.85
						C1166.98,750.58,1164.28,755.69,1159.48,757.17z"/>
				</g>
				<path class="st11" d="M1024.99,700.76c6.49,23.28-5.92,34.65-29.2,41.14c-23.28,6.49-35.49-3.52-40.58-27.15
					c-5.51-25.61,7.06-31.49,30.34-37.98C1008.83,670.28,1018.49,677.49,1024.99,700.76z"/>
			</g>
		</g>
		<path class="st7" d="M1008.56,767.91c0.02-5.91,8.28-18.56,9.58-18.71c4.03,1.77,6.51,20.22,5.44,29.87
			c-1.07,9.65-0.94,15.28-6.97,6.79C1012.31,779.82,1008.55,770.61,1008.56,767.91z"/>
		<path class="st7" d="M980.19,779.82c-2.15-7.84-0.03-16.98,0.7-18.81c0.72-1.84,3.64-7.3,4.38-6.91c1.52,0.79,2.42,3.81,1.65,9.06
			c-2.03,13.94,4.86,20,3.2,33.13C983.2,798.53,980.19,779.82,980.19,779.82z"/>
	</g>
	<g>
		<path class="st16" d="M1941.96,1342.16h-470.9c-1.6,0-2.9-1.3-2.9-2.9v-22.08c0-1.6,1.3-2.9,2.9-2.9h470.9c1.6,0,2.9,1.3,2.9,2.9
			v22.08C1944.86,1340.86,1943.56,1342.16,1941.96,1342.16z"/>
		<path class="st16" d="M1941.96,1451.88h-470.9c-1.6,0-2.9-1.3-2.9-2.9v-22.08c0-1.6,1.3-2.9,2.9-2.9h470.9c1.6,0,2.9,1.3,2.9,2.9
			v22.08C1944.86,1450.59,1943.56,1451.88,1941.96,1451.88z"/>
		<path class="st16" d="M1908.88,1397.16h-437.71c-1.66,0-3.01-1.35-3.01-3.01v-21.86c0-1.66,1.35-3.01,3.01-3.01h437.71
			c1.66,0,3.01,1.35,3.01,3.01v21.86C1911.89,1395.81,1910.54,1397.16,1908.88,1397.16z"/>
		<path class="st16" d="M1941.84,1537.16h-134.2c-1.66,0-3.01-1.35-3.01-3.01v-21.86c0-1.66,1.35-3.01,3.01-3.01h134.2
			c1.66,0,3.01,1.35,3.01,3.01v21.86C1944.86,1535.81,1943.51,1537.16,1941.84,1537.16z"/>
		<path class="st17" d="M1768.74,1546.61h-25.67c-5.83,0-10.56-4.73-10.56-10.56v-25.67c0-5.83,4.73-10.56,10.56-10.56h25.67
			c5.83,0,10.56,4.73,10.56,10.56v25.67C1779.3,1541.88,1774.57,1546.61,1768.74,1546.61z"/>
		<path class="st16" d="M1682.49,1537.16h-134.2c-1.66,0-3.01-1.35-3.01-3.01v-21.86c0-1.66,1.35-3.01,3.01-3.01h134.2
			c1.66,0,3.01,1.35,3.01,3.01v21.86C1685.5,1535.81,1684.15,1537.16,1682.49,1537.16z"/>
		<path class="st17" d="M1509.38,1546.61h-25.67c-5.83,0-10.56-4.73-10.56-10.56v-25.67c0-5.83,4.73-10.56,10.56-10.56h25.67
			c5.83,0,10.56,4.73,10.56,10.56v25.67C1519.94,1541.88,1515.21,1546.61,1509.38,1546.61z"/>
		<g>
			<g>
				<path class="st1" d="M1523.09,1558.39c-0.11-0.18-11.38-18.1-64.4-60.02l8.16-10.32c23.22,18.36,41.54,34.49,54.44,47.94
					c9.81,10.24,12.81,15.16,13.12,15.69l-11.35,6.65l5.67-3.32L1523.09,1558.39z"/>
			</g>
			<g>
				<path class="st1" d="M1459.63,1557.09c-0.41-5.11,1.76-12.88,32.86-40.46c15.59-13.83,31.51-26.38,31.67-26.5l8.14,10.33
					c-0.15,0.11-14.7,11.59-29.45,24.57c-27.72,24.39-29.97,31.02-30.13,31.69c0,0,0.06-0.26,0.03-0.69L1459.63,1557.09z"/>
			</g>
		</g>
	</g>
	<path class="st16" d="M1921.78,1026.23h-450.73c-1.6,0-2.9-1.3-2.9-2.9v-22.08c0-1.6,1.3-2.9,2.9-2.9h450.73c1.6,0,2.9,1.3,2.9,2.9
		v22.08C1924.68,1024.93,1923.38,1026.23,1921.78,1026.23z"/>
	<path class="st16" d="M1941.84,1081.23h-470.67c-1.66,0-3.01-1.35-3.01-3.01v-21.86c0-1.66,1.35-3.01,3.01-3.01h470.67
		c1.66,0,3.01,1.35,3.01,3.01v21.86C1944.86,1079.88,1943.51,1081.23,1941.84,1081.23z"/>
	<path class="st17" d="M1719.84,1165.03h-25.67c-5.83,0-10.56-4.73-10.56-10.56v-25.67c0-5.83,4.73-10.56,10.56-10.56h25.67
		c5.83,0,10.56,4.73,10.56,10.56v25.67C1730.4,1160.3,1725.67,1165.03,1719.84,1165.03z"/>
	<path class="st17" d="M1509.38,1165.03h-25.67c-5.83,0-10.56-4.73-10.56-10.56v-25.67c0-5.83,4.73-10.56,10.56-10.56h25.67
		c5.83,0,10.56,4.73,10.56,10.56v25.67C1519.94,1160.3,1515.21,1165.03,1509.38,1165.03z"/>
	<path class="st17" d="M1614.61,1165.03h-25.67c-5.83,0-10.56-4.73-10.56-10.56v-25.67c0-5.83,4.73-10.56,10.56-10.56h25.67
		c5.83,0,10.56,4.73,10.56,10.56v25.67C1625.17,1160.3,1620.44,1165.03,1614.61,1165.03z"/>
	<path class="st17" d="M1825.07,1165.03h-25.67c-5.83,0-10.56-4.73-10.56-10.56v-25.67c0-5.83,4.73-10.56,10.56-10.56h25.67
		c5.83,0,10.56,4.73,10.56,10.56v25.67C1835.63,1160.3,1830.9,1165.03,1825.07,1165.03z"/>
	<path class="st17" d="M1930.3,1165.03h-25.67c-5.83,0-10.56-4.73-10.56-10.56v-25.67c0-5.83,4.73-10.56,10.56-10.56h25.67
		c5.83,0,10.56,4.73,10.56,10.56v25.67C1940.86,1160.3,1936.13,1165.03,1930.3,1165.03z"/>
	<g>
		<g>
			<path class="st1" d="M1838.78,1177.94c-0.11-0.18-11.38-18.1-64.4-60.02l8.16-10.32c23.22,18.36,41.54,34.49,54.44,47.94
				c9.81,10.24,12.81,15.16,13.12,15.69l-11.35,6.65l5.67-3.32L1838.78,1177.94z"/>
		</g>
		<g>
			<path class="st1" d="M1775.31,1176.64c-0.41-5.11,1.76-12.88,32.86-40.46c15.59-13.83,31.51-26.38,31.67-26.5l8.14,10.33
				c-0.15,0.11-14.7,11.59-29.45,24.57c-27.72,24.39-29.97,31.02-30.13,31.69c0,0,0.06-0.26,0.03-0.69L1775.31,1176.64z"/>
		</g>
	</g>
	<g>
		<path class="st16" d="M1941.96,713.93h-470.9c-1.6,0-2.9-1.3-2.9-2.9v-22.08c0-1.6,1.3-2.9,2.9-2.9h470.9c1.6,0,2.9,1.3,2.9,2.9
			v22.08C1944.86,712.63,1943.56,713.93,1941.96,713.93z"/>
		<path class="st16" d="M1735.95,768.93h-264.78c-1.66,0-3.01-1.35-3.01-3.01v-21.86c0-1.66,1.35-3.01,3.01-3.01h264.78
			c1.66,0,3.01,1.35,3.01,3.01v21.86C1738.96,767.58,1737.61,768.93,1735.95,768.93z"/>
		<path class="st16" d="M1941.84,843.28h-134.2c-1.66,0-3.01-1.35-3.01-3.01v-21.86c0-1.66,1.35-3.01,3.01-3.01h134.2
			c1.66,0,3.01,1.35,3.01,3.01v21.86C1944.86,841.93,1943.51,843.28,1941.84,843.28z"/>
		<path class="st17" d="M1768.74,852.73h-25.67c-5.83,0-10.56-4.73-10.56-10.56V816.5c0-5.83,4.73-10.56,10.56-10.56h25.67
			c5.83,0,10.56,4.73,10.56,10.56v25.67C1779.3,848,1774.57,852.73,1768.74,852.73z"/>
		<path class="st16" d="M1682.49,843.28h-134.2c-1.66,0-3.01-1.35-3.01-3.01v-21.86c0-1.66,1.35-3.01,3.01-3.01h134.2
			c1.66,0,3.01,1.35,3.01,3.01v21.86C1685.5,841.93,1684.15,843.28,1682.49,843.28z"/>
		<path class="st17" d="M1509.38,852.73h-25.67c-5.83,0-10.56-4.73-10.56-10.56V816.5c0-5.83,4.73-10.56,10.56-10.56h25.67
			c5.83,0,10.56,4.73,10.56,10.56v25.67C1519.94,848,1515.21,852.73,1509.38,852.73z"/>
		<g>
			<g>
				<path class="st1" d="M1782.44,864.5c-0.11-0.18-11.38-18.1-64.4-60.02l8.16-10.32c23.22,18.36,41.54,34.49,54.44,47.94
					c9.81,10.24,12.81,15.16,13.12,15.69l-11.35,6.65l5.67-3.32L1782.44,864.5z"/>
			</g>
			<g>
				<path class="st1" d="M1718.98,863.21c-0.41-5.11,1.76-12.88,32.86-40.46c15.59-13.83,31.51-26.38,31.67-26.5l8.14,10.33
					c-0.15,0.11-14.7,11.59-29.45,24.57c-27.72,24.39-29.97,31.02-30.13,31.69c0,0,0.06-0.26,0.03-0.69L1718.98,863.21z"/>
			</g>
		</g>
	</g>
</g>
<g>
</g>
<g>
</g>
<g>
</g>
<g>
</g>
<g>
</g>
<g>
</g>
</svg>
